<svg xmlns="http://www.w3.org/2000/svg" width="100" height="100" fill="none">
    <path fill="#fff" d="M0 0h100v100H0z"/>
    <path fill-rule="evenodd" clip-rule="evenodd"
          d="M12.41 90.75S12 24.01 12 19.25c0-6.51 1-9.89 8.2-10C26.5 9.11 74.49 9 79.41 9c6.09 0 8.12 2.24 8.28 9.27.11 5.37-.58 72.18-.59 72.27l-74.69.21Zm35.42-73.19-24.81.42-.42 6.36 25.53-.3-.3-6.48Zm2.33 13.42c-34.83 0-36.51 52.64.6 52.64 33.89 0 34.11-52.64-.6-52.64Zm22.71-15.4c-6.81 0-6.77 10.37-.11 10.37 7.28 0 6.96-10.37.11-10.37ZM54.35 62.64c-6.29 0-12.76 3.66-11 14.56-21.7-6.24-18.33-40.74 6.75-40.74 11.92 0 17.44 7.5 17.44 14 .02 7.16-4.2 12.18-13.19 12.18Z"
          fill="url(#a)"/>
    <defs>
        <linearGradient id="a" x1="49.85" y1="8.97" x2="49.85" y2="90.75" gradientUnits="userSpaceOnUse">
            <stop stop-color="#769cff"/>
            <stop offset="1"/>
        </linearGradient>
    </defs>
</svg>